<svg width="124" height="115" viewBox="0 0 124 115" fill="none" xmlns="http://www.w3.org/2000/svg">
<path d="M62.276 53.0608V87.373C62.2664 90.5423 61.5906 93.6772 60.289 96.5897C58.9875 99.5021 57.0869 102.132 54.7013 104.322C52.3158 106.513 49.4943 108.218 46.406 109.335C43.3177 110.453 40.0262 110.96 36.7288 110.827C33.4314 110.694 30.196 109.922 27.2164 108.559C24.2369 107.196 21.5747 105.27 19.3892 102.895C17.2038 100.52 15.5402 97.7455 14.4982 94.7382C13.4561 91.731 13.0571 88.5526 13.325 85.3937C8.222 80.1302 5 69.8366 5 61.2456C5 49.5432 10.985 38.1605 19.553 33.6749C19.0888 29.5874 19.9109 25.46 21.9131 21.8256C23.9154 18.1911 27.0059 15.2163 30.7859 13.285C34.5658 11.3537 38.8618 10.5546 43.1193 10.9909C47.3768 11.4271 51.4004 13.0786 54.671 15.7323" stroke="#87888C" stroke-width="8.03571" stroke-linecap="round" stroke-linejoin="round"/>
<path d="M30.8751 47.6677C27.7251 46.9763 20.6061 42.482 19.5351 33.7354M19.8861 73.0518C16.6821 75.4804 14.1261 80.9773 13.3071 85.3851M62.2761 87.373C62.2857 90.5423 62.9615 93.6772 64.2631 96.5897C65.5647 99.5022 67.4652 102.132 69.8508 104.322C72.2364 106.513 75.0578 108.218 78.1461 109.335C81.2344 110.453 84.5259 110.96 87.8233 110.827C91.1207 110.694 94.3562 109.922 97.3357 108.559C100.315 107.196 102.977 105.27 105.163 102.895C107.348 100.52 109.012 97.7455 110.054 94.7383C111.096 91.731 111.495 88.5527 111.227 85.3938C116.33 80.1303 119.543 69.8366 119.543 61.2456C119.543 57.4946 118.931 53.7782 117.815 50.3038" stroke="#87888C" stroke-width="8.03571" stroke-linecap="round" stroke-linejoin="round"/>
<path d="M104.666 73.0517C107.87 75.4804 110.426 80.9772 111.245 85.3851M62.8522 34.6861C59.7022 34.1502 59.7022 29.8029 62.8522 29.2757C68.4453 28.338 73.6216 25.824 77.7227 22.0534C81.8239 18.2828 84.6645 13.4259 85.8832 8.10067L86.0722 7.26231C86.7562 4.26324 91.2022 4.23731 91.9132 7.23638L92.1382 8.21302C93.396 13.5177 96.2599 18.3465 100.369 22.0914C104.479 25.8363 109.65 28.3299 115.232 29.2584C118.409 29.7856 118.409 34.1675 115.232 34.7034C109.65 35.6318 104.479 38.1255 100.369 41.8704C96.2599 45.6153 93.396 50.4441 92.1382 55.7487L91.9132 56.7167C91.1932 59.7072 86.7562 59.6899 86.0722 56.6908L85.8832 55.8611C84.6645 50.5358 81.8239 45.679 77.7227 41.9084C73.6216 38.1378 68.4453 35.6238 62.8522 34.6861Z" stroke="#87888C" stroke-width="8.03571" stroke-linecap="round" stroke-linejoin="round"/>
</svg>
