<svg width="30" height="30" viewBox="0 0 30 30" fill="none" xmlns="http://www.w3.org/2000/svg">
<path d="M16.3998 20.6669H13.8932C12.1199 20.6669 10.6665 19.1736 10.6665 17.3336C10.6665 16.7869 11.1198 16.3336 11.6665 16.3336C12.2132 16.3336 12.6665 16.7869 12.6665 17.3336C12.6665 18.0669 13.2132 18.6669 13.8932 18.6669H16.3998C16.9198 18.6669 17.3332 18.2003 17.3332 17.6269C17.3332 16.9069 17.1332 16.8003 16.6798 16.6403L12.6665 15.2403C11.8132 14.9469 10.6665 14.3203 10.6665 12.3603C10.6665 10.6936 11.9865 9.32031 13.5998 9.32031H16.1065C17.8798 9.32031 19.3332 10.8136 19.3332 12.6536C19.3332 13.2003 18.8798 13.6536 18.3332 13.6536C17.7865 13.6536 17.3332 13.2003 17.3332 12.6536C17.3332 11.9203 16.7865 11.3203 16.1065 11.3203H13.5998C13.0798 11.3203 12.6665 11.787 12.6665 12.3603C12.6665 13.0803 12.8665 13.1869 13.3198 13.3469L17.3332 14.7469C18.1865 15.0403 19.3332 15.6669 19.3332 17.6269C19.3332 19.3069 18.0132 20.6669 16.3998 20.6669Z" fill="#F2C8ED"/>
<path d="M15 22C14.4533 22 14 21.5467 14 21V9C14 8.45333 14.4533 8 15 8C15.5467 8 16 8.45333 16 9V21C16 21.5467 15.5467 22 15 22Z" fill="#F2C8ED"/>
<path d="M14.9998 29.3332C7.09317 29.3332 0.666504 22.9065 0.666504 14.9998C0.666504 7.09317 7.09317 0.666504 14.9998 0.666504C15.5465 0.666504 15.9998 1.11984 15.9998 1.6665C15.9998 2.21317 15.5465 2.6665 14.9998 2.6665C8.19984 2.6665 2.6665 8.19984 2.6665 14.9998C2.6665 21.7998 8.19984 27.3332 14.9998 27.3332C21.7998 27.3332 27.3332 21.7998 27.3332 14.9998C27.3332 14.4532 27.7865 13.9998 28.3332 13.9998C28.8798 13.9998 29.3332 14.4532 29.3332 14.9998C29.3332 22.9065 22.9065 29.3332 14.9998 29.3332Z" fill="#F2C8ED"/>
<path d="M26.9998 9.33333H21.6665C21.1198 9.33333 20.6665 8.88 20.6665 8.33333V3C20.6665 2.45333 21.1198 2 21.6665 2C22.2132 2 22.6665 2.45333 22.6665 3V7.33333H26.9998C27.5465 7.33333 27.9998 7.78667 27.9998 8.33333C27.9998 8.88 27.5465 9.33333 26.9998 9.33333Z" fill="#F2C8ED"/>
<path d="M21.6656 9.33326C21.4123 9.33326 21.1589 9.23992 20.9589 9.03992C20.5723 8.65326 20.5723 8.01326 20.9589 7.62659L27.6256 0.959922C28.0123 0.573255 28.6523 0.573255 29.0389 0.959922C29.4256 1.34659 29.4256 1.98659 29.0389 2.37326L22.3723 9.03992C22.1723 9.23992 21.9189 9.33326 21.6656 9.33326Z" fill="#F2C8ED"/>
</svg>
