<svg width="24" height="29" viewBox="0 0 24 29" fill="none" xmlns="http://www.w3.org/2000/svg">
<path d="M18.15 3.56494H21.5541C21.9189 3.56494 22.2687 3.70163 22.5267 3.94492C22.7846 4.18822 22.9295 4.51821 22.9295 4.86228V26.2684C22.9295 26.6125 22.7846 26.9425 22.5267 27.1858C22.2687 27.4291 21.9189 27.5658 21.5541 27.5658H2.29872C1.93395 27.5658 1.58412 27.4291 1.32618 27.1858C1.06825 26.9425 0.92334 26.6125 0.92334 26.2684V4.86228C0.92334 4.51821 1.06825 4.18822 1.32618 3.94492C1.58412 3.70163 1.93395 3.56494 2.29872 3.56494H7.11257V5.51095H16.7403V3.56494H18.15Z" stroke="#A9DFD8" stroke-width="1.5" stroke-linejoin="round"/>
<path d="M13.9897 11.3487L8.48818 16.5387H15.3679L9.86356 21.7281M7.11279 1.61865H16.7405V5.51068H7.11279V1.61865Z" stroke="#A9DFD8" stroke-width="1.5" stroke-linecap="round" stroke-linejoin="round"/>
</svg>
