<svg width="19" height="19" viewBox="0 0 19 19" fill="none" xmlns="http://www.w3.org/2000/svg">
<path fill-rule="evenodd" clip-rule="evenodd" d="M1 1H2.07143V17.0714H18.1429V18.1429H1V1ZM16.8754 4.33536C16.9298 4.37994 16.975 4.43482 17.0083 4.49687C17.0415 4.55891 17.0622 4.6269 17.0692 4.69696C17.0762 4.76701 17.0692 4.83775 17.0489 4.90513C17.0285 4.97251 16.995 5.03521 16.9504 5.08964L12.1289 10.9825C12.0815 11.0403 12.0226 11.0876 11.9558 11.1213C11.889 11.155 11.816 11.1743 11.7413 11.178C11.6666 11.1818 11.592 11.1698 11.5222 11.143C11.4524 11.1161 11.389 11.075 11.3361 11.0221L8.56429 8.25036L4.64714 13.6364C4.56145 13.7454 4.43686 13.8169 4.29955 13.8359C4.16225 13.8549 4.02291 13.82 3.91083 13.7384C3.79874 13.6569 3.72264 13.535 3.69851 13.3985C3.67438 13.262 3.7041 13.1215 3.78143 13.0064L8.06714 7.11357C8.11263 7.05091 8.17117 6.99885 8.23871 6.96099C8.30625 6.92312 8.3812 6.90035 8.4584 6.89424C8.53559 6.88813 8.61319 6.89883 8.68585 6.92559C8.75851 6.95236 8.8245 6.99456 8.87929 7.04929L11.6746 9.84571L16.1211 4.41036C16.1657 4.35587 16.2205 4.31071 16.2826 4.27745C16.3446 4.24419 16.4126 4.22349 16.4827 4.21653C16.5527 4.20956 16.6235 4.21647 16.6908 4.23686C16.7582 4.25725 16.8209 4.29072 16.8754 4.33536Z" fill="#87888C" stroke="#87888C" stroke-width="0.5"/>
</svg>
