<svg width="19" height="19" viewBox="0 0 19 19" fill="none" xmlns="http://www.w3.org/2000/svg">
<path d="M18.1427 16.4497V9.82404C18.1427 9.36308 18.0475 8.90696 17.8628 8.48363C17.6782 8.06029 17.4079 7.67865 17.0687 7.36208L10.749 1.46287C10.4307 1.16564 10.0093 1.00003 9.57127 1.00003C9.13325 1.00003 8.71184 1.16564 8.39355 1.46287L2.07384 7.36208C1.7346 7.67865 1.46437 8.06029 1.27969 8.48363C1.09502 8.90696 0.999789 9.36308 0.999839 9.82404V16.4497C0.999839 16.8987 1.18045 17.3294 1.50194 17.647C1.82343 17.9645 2.25947 18.1429 2.71412 18.1429H16.4284C16.8831 18.1429 17.3191 17.9645 17.6406 17.647C17.9621 17.3294 18.1427 16.8987 18.1427 16.4497Z" stroke="#87888C" stroke-width="1.2" stroke-linecap="round" stroke-linejoin="round"/>
</svg>
