<svg width="30" height="22" viewBox="0 0 30 22" fill="none" xmlns="http://www.w3.org/2000/svg">
<path d="M21.1303 13.0829L27.5128 4.00715M19.7929 12.1394L26.1746 3.06442M17.2083 13.2756L17.0295 17.4936L20.9361 15.9003M4.23519 17.7234H15.2088M4.23519 14.9545H12.8377M1 12.3113H16.2571M25.0292 12.3113H26.7859M1 7.72256H19.5015M26.7859 9.82694V18.2861C26.7869 18.715 26.7035 19.1399 26.5403 19.5365C26.3771 19.9331 26.1373 20.2938 25.8348 20.5977C25.5322 20.9017 25.1727 21.1432 24.7769 21.3082C24.381 21.4733 23.9565 21.5588 23.5276 21.5598H4.27373C3.8447 21.5607 3.41969 21.4771 3.02299 21.3137C2.62629 21.1503 2.26567 20.9104 1.96173 20.6076C1.65778 20.3048 1.41648 19.945 1.25159 19.549C1.08671 19.1529 1.00148 18.7282 1.00077 18.2992V7.22075C0.999757 6.79179 1.08326 6.36682 1.2465 5.97013C1.40975 5.57344 1.64954 5.2128 1.95219 4.90879C2.25483 4.60479 2.6144 4.36338 3.01035 4.19836C3.4063 4.03334 3.83089 3.94793 4.25985 3.94702H22.1709M18.0285 12.1078L25.7175 1.17356C25.7798 1.08498 25.8747 1.02475 25.9814 1.0061C26.0881 0.987458 26.1978 1.01192 26.2864 1.07413L26.2872 1.0749L29.3466 3.22938C29.3907 3.26016 29.4282 3.29933 29.4571 3.34464C29.4859 3.38994 29.5056 3.4405 29.5149 3.49341C29.5242 3.54633 29.523 3.60056 29.5113 3.653C29.4996 3.70544 29.4777 3.75506 29.4468 3.79902L29.4461 3.79979L21.7562 14.7341C21.6938 14.8223 21.599 14.8822 21.4926 14.9007C21.3861 14.9192 21.2766 14.8948 21.1881 14.8327H21.1866L18.1271 12.6783C18.0832 12.6473 18.0458 12.6079 18.0171 12.5625C17.9883 12.517 17.9689 12.4664 17.9598 12.4134C17.9507 12.3604 17.9521 12.3061 17.9641 12.2537C17.976 12.2012 17.9974 12.1517 18.0285 12.1078Z" stroke="#D9D9D9" stroke-width="0.625" stroke-linecap="round" stroke-linejoin="round"/>
</svg>
