<svg width="30" height="30" viewBox="0 0 30 30" fill="none" xmlns="http://www.w3.org/2000/svg">
<path d="M16.8468 3.78425L21.35 1L29.413 6.62169L24.4542 10.4188M24.6677 18.7037L29.5209 14.7416M24.6677 16.6525L29.5209 12.6905M24.6677 14.6021L29.5209 10.64M24.6677 12.5517L29.5209 8.58962M9.49231 7.70471L15.4316 4.00471L23.3511 10.7017V20.388L18.7516 24.1157V15.0068L9.49231 7.70471Z" stroke="#D9D9D9" stroke-width="0.770833" stroke-linecap="round" stroke-linejoin="round"/>
<path d="M23.9816 7.57202L26.0806 5.971L24.643 5.00977L23.4883 5.88158M1 21.279L11.4394 29.2956L17.1613 24.74" stroke="#D9D9D9" stroke-width="0.770833" stroke-linecap="round" stroke-linejoin="round"/>
<path d="M1 19.2217L11.4394 27.2383L17.1613 22.6827" stroke="#D9D9D9" stroke-width="0.770833" stroke-linecap="round" stroke-linejoin="round"/>
<path d="M1.0802 17.1646L11.5196 25.182L17.2415 20.6264" stroke="#D9D9D9" stroke-width="0.770833" stroke-linecap="round" stroke-linejoin="round"/>
<path d="M1.06934 15.1078L11.508 23.1244L17.2299 18.5688M12.3582 14.9551C12.184 15.7468 11.0524 16.153 9.8314 15.8609C8.6104 15.5695 7.76171 14.6915 7.93592 13.8991C8.11013 13.1074 9.24171 12.702 10.4627 12.9934C11.6837 13.2847 12.5324 14.1635 12.3582 14.9551Z" stroke="#D9D9D9" stroke-width="0.770833" stroke-linecap="round" stroke-linejoin="round"/>
<path d="M8.36228 8.84717L1.19739 13.16L11.4734 20.9585L17.3625 16.3219" stroke="#D9D9D9" stroke-width="0.770833" stroke-linecap="round" stroke-linejoin="round"/>
</svg>
