<svg width="19" height="20" viewBox="0 0 19 20" fill="none" xmlns="http://www.w3.org/2000/svg">
<path d="M7.1139 18.5713C5.69621 18.131 4.41227 17.3162 3.38705 16.2064C3.71691 15.7994 3.92253 15.2992 3.97761 14.7699C4.03269 14.2406 3.93472 13.7063 3.69623 13.2352C3.45775 12.7642 3.08959 12.3779 2.63888 12.1258C2.18817 11.8736 1.6754 11.7672 1.16619 11.8199C1.05018 11.2288 0.991886 10.6269 0.992189 10.0235C0.992189 9.09166 1.12933 8.19278 1.38476 7.3483H1.42076C1.8578 7.34844 2.28766 7.2327 2.66976 7.012C3.05186 6.7913 3.37358 6.47292 3.60456 6.08692C3.83553 5.70093 3.96813 5.26006 3.98984 4.80594C4.01155 4.35182 3.92164 3.89944 3.72862 3.49151C4.73344 2.5181 5.94864 1.8105 7.27162 1.42847C7.48692 1.86828 7.81498 2.23754 8.21949 2.49541C8.624 2.75329 9.0892 2.88971 9.56361 2.88959C10.038 2.88971 10.5032 2.75329 10.9077 2.49541C11.3123 2.23754 11.6403 1.86828 11.8556 1.42847C13.1786 1.8105 14.3938 2.5181 15.3986 3.49151C15.2042 3.9023 15.1143 4.35813 15.1377 4.81537C15.1611 5.27262 15.2969 5.71597 15.5321 6.10299C15.7673 6.49001 16.094 6.80775 16.481 7.02579C16.8681 7.24383 17.3024 7.35488 17.7425 7.3483C18.0034 8.21405 18.1358 9.11619 18.135 10.0235C18.135 10.6388 18.075 11.2399 17.961 11.8199C17.4518 11.7672 16.9391 11.8736 16.4883 12.1258C16.0376 12.3779 15.6695 12.7642 15.431 13.2352C15.1925 13.7063 15.0945 14.2406 15.1496 14.7699C15.2047 15.2992 15.4103 15.7994 15.7402 16.2064C14.715 17.3162 13.431 18.131 12.0133 18.5713C11.8468 18.0315 11.5199 17.5606 11.0797 17.2265C10.6394 16.8925 10.1085 16.7125 9.56361 16.7125C9.01869 16.7125 8.48783 16.8925 8.04757 17.2265C7.60731 17.5606 7.28038 18.0315 7.1139 18.5713Z" stroke="#87888C" stroke-width="1.2" stroke-linejoin="round"/>
<path d="M9.56445 13.1441C9.95842 13.1441 10.3485 13.0633 10.7125 12.9065C11.0765 12.7496 11.4072 12.5197 11.6858 12.2299C11.9643 11.9401 12.1853 11.596 12.3361 11.2173C12.4869 10.8387 12.5645 10.4328 12.5645 10.023C12.5645 9.61309 12.4869 9.20723 12.3361 8.82856C12.1853 8.44989 11.9643 8.10583 11.6858 7.816C11.4072 7.52618 11.0765 7.29628 10.7125 7.13943C10.3485 6.98258 9.95842 6.90186 9.56445 6.90186C8.7688 6.90186 8.00574 7.23068 7.44313 7.816C6.88052 8.40132 6.56445 9.19519 6.56445 10.023C6.56445 10.8507 6.88052 11.6446 7.44313 12.2299C8.00574 12.8152 8.7688 13.1441 9.56445 13.1441V13.1441Z" stroke="#87888C" stroke-width="1.2" stroke-linejoin="round"/>
</svg>
