<svg width="23" height="22" viewBox="0 0 23 22" fill="none" xmlns="http://www.w3.org/2000/svg">
<path d="M13.5645 5.33461V3.26582C13.5644 2.95241 13.507 2.64241 13.3959 2.35542C13.2847 2.06843 13.1222 1.81068 12.9187 1.59847C12.7151 1.38626 12.4749 1.2242 12.2132 1.12253C11.9516 1.02087 11.6741 0.981806 11.3985 1.00782L3.39845 1.76237C2.8985 1.80955 2.43246 2.06788 2.09275 2.48612C1.75304 2.90437 1.56448 3.45199 1.56445 4.02037V17.9785C1.56448 18.5469 1.75304 19.0945 2.09275 19.5127C2.43246 19.931 2.8985 20.1893 3.39845 20.2365L11.3985 20.9922C11.6742 21.0182 11.9517 20.9791 12.2135 20.8774C12.4752 20.7756 12.7155 20.6135 12.919 20.4011C13.1226 20.1888 13.2851 19.9309 13.3962 19.6438C13.5073 19.3567 13.5646 19.0466 13.5645 18.7331V16.6643M12.5645 10.9994H21.5645H12.5645ZM21.5645 10.9994L18.2315 6.46758L21.5645 10.9994ZM21.5645 10.9994L18.2315 15.5313L21.5645 10.9994Z" stroke="#87888C" stroke-width="1.2" stroke-linecap="round" stroke-linejoin="round"/>
</svg>
