<svg width="30" height="30" viewBox="0 0 30 30" fill="none" xmlns="http://www.w3.org/2000/svg">
<path d="M11.6665 17.3332C11.6665 18.6265 12.6665 19.6665 13.8932 19.6665H16.3998C17.4665 19.6665 18.3332 18.7598 18.3332 17.6265C18.3332 16.4132 17.7998 15.9732 17.0132 15.6932L12.9998 14.2932C12.2132 14.0132 11.6799 13.5865 11.6799 12.3598C11.6799 11.2398 12.5465 10.3198 13.6132 10.3198H16.1198C17.3465 10.3198 18.3465 11.3598 18.3465 12.6532" stroke="#FEB95A" stroke-width="1.5" stroke-linecap="round" stroke-linejoin="round"/>
<path d="M15 9V21" stroke="#FEB95A" stroke-width="1.5" stroke-linecap="round" stroke-linejoin="round"/>
<path d="M28.3332 14.9998C28.3332 22.3598 22.3598 28.3332 14.9998 28.3332C7.63984 28.3332 1.6665 22.3598 1.6665 14.9998C1.6665 7.63984 7.63984 1.6665 14.9998 1.6665" stroke="#FEB95A" stroke-width="1.5" stroke-linecap="round" stroke-linejoin="round"/>
<path d="M28.3333 6.99984V1.6665H23" stroke="#FEB95A" stroke-width="1.5" stroke-linecap="round" stroke-linejoin="round"/>
<path d="M21.6665 8.33317L28.3332 1.6665" stroke="#FEB95A" stroke-width="1.5" stroke-linecap="round" stroke-linejoin="round"/>
</svg>
