<svg width="18" height="18" viewBox="0 0 18 18" fill="none" xmlns="http://www.w3.org/2000/svg">
<path d="M8.57143 8.57143C9.70807 8.57143 10.7982 8.1199 11.6019 7.31617C12.4056 6.51244 12.8571 5.42236 12.8571 4.28571C12.8571 3.14907 12.4056 2.05898 11.6019 1.25526C10.7982 0.45153 9.70807 0 8.57143 0C7.43479 0 6.3447 0.45153 5.54097 1.25526C4.73724 2.05898 4.28571 3.14907 4.28571 4.28571C4.28571 5.42236 4.73724 6.51244 5.54097 7.31617C6.3447 8.1199 7.43479 8.57143 8.57143 8.57143ZM11.4286 4.28571C11.4286 5.04348 11.1276 5.7702 10.5917 6.30602C10.0559 6.84184 9.32919 7.14286 8.57143 7.14286C7.81367 7.14286 7.08694 6.84184 6.55112 6.30602C6.0153 5.7702 5.71429 5.04348 5.71429 4.28571C5.71429 3.52795 6.0153 2.80123 6.55112 2.26541C7.08694 1.72959 7.81367 1.42857 8.57143 1.42857C9.32919 1.42857 10.0559 1.72959 10.5917 2.26541C11.1276 2.80123 11.4286 3.52795 11.4286 4.28571ZM17.1429 15.7143C17.1429 17.1429 15.7143 17.1429 15.7143 17.1429H1.42857C1.42857 17.1429 0 17.1429 0 15.7143C0 14.2857 1.42857 10 8.57143 10C15.7143 10 17.1429 14.2857 17.1429 15.7143ZM15.7143 15.7086C15.7129 15.3571 15.4943 14.3 14.5257 13.3314C13.5943 12.4 11.8414 11.4286 8.57143 11.4286C5.3 11.4286 3.54857 12.4 2.61714 13.3314C1.64857 14.3 1.43143 15.3571 1.42857 15.7086H15.7143Z" fill="#87888C"/>
</svg>
