<svg width="31" height="32" viewBox="0 0 31 32" fill="none" xmlns="http://www.w3.org/2000/svg">
<path d="M2.66138 14.4987C1.38059 16.5486 0.813108 18.9973 1.05426 21.4333C1.2954 23.8694 2.33049 26.1444 3.98563 27.8761C5.64077 29.6079 7.81511 30.6909 10.1434 30.9432C12.4716 31.1955 14.812 30.6018 16.7712 29.2617M18.2047 24.9976C21.2461 24.9976 24.1631 23.7335 26.3137 21.4833C28.4643 19.233 29.6726 16.1811 29.6726 12.9988C29.6726 9.81653 28.4643 6.76459 26.3137 4.51437C24.1631 2.26416 21.2461 1 18.2047 1C15.1632 1 12.2463 2.26416 10.0956 4.51437C7.945 6.76459 6.73678 9.81653 6.73678 12.9988C6.73678 16.1811 7.945 19.233 10.0956 21.4833C12.2463 23.7335 15.1632 24.9976 18.2047 24.9976Z" stroke="#F2C8ED" stroke-width="1.875" stroke-linecap="round" stroke-linejoin="round"/>
<path d="M22.5052 16.7365C21.82 18.0924 20.5714 18.9983 19.1466 18.9983C16.982 18.9983 15.2274 16.909 15.2274 14.3323V11.6641C15.2274 9.0888 16.982 6.99951 19.1466 6.99951C20.5714 6.99951 21.82 7.90542 22.5052 9.26129M13.9043 12.9989H19.5279" stroke="#F2C8ED" stroke-width="1.875" stroke-linecap="round" stroke-linejoin="round"/>
</svg>
